<mxfile host="65bd71144e">
    <diagram id="bkY7zryDaVmGCTchTHhL" name="Biolab prog">
        <mxGraphModel dx="764" dy="576" grid="1" gridSize="10" guides="1" tooltips="1" connect="1" arrows="1" fold="1" page="1" pageScale="1" pageWidth="827" pageHeight="1169" math="0" shadow="0">
            <root>
                <mxCell id="0"/>
                <mxCell id="1" parent="0"/>
                <mxCell id="9" value="" style="edgeStyle=none;html=1;fillColor=#60a917;strokeColor=#2D7600;" parent="1" source="2" target="8" edge="1">
                    <mxGeometry relative="1" as="geometry"/>
                </mxCell>
                <mxCell id="2" value="Biomass" style="rounded=0;whiteSpace=wrap;html=1;fillColor=#60a917;fontColor=#ffffff;strokeColor=#2D7600;" parent="1" vertex="1">
                    <mxGeometry x="240" y="160" width="120" height="60" as="geometry"/>
                </mxCell>
                <mxCell id="5" style="edgeStyle=none;html=1;entryX=0.5;entryY=1;entryDx=0;entryDy=0;exitX=0.5;exitY=0;exitDx=0;exitDy=0;fillColor=#60a917;strokeColor=#2D7600;" parent="1" source="3" target="4" edge="1">
                    <mxGeometry relative="1" as="geometry">
                        <mxPoint x="100" y="290" as="sourcePoint"/>
                    </mxGeometry>
                </mxCell>
                <mxCell id="3" value="Dirty Biocell" style="rounded=0;whiteSpace=wrap;html=1;fillColor=#60a917;fontColor=#ffffff;strokeColor=#2D7600;" parent="1" vertex="1">
                    <mxGeometry x="40" y="280" width="120" height="60" as="geometry"/>
                </mxCell>
                <mxCell id="7" value="not cheap" style="edgeStyle=none;html=1;exitX=1;exitY=0.5;exitDx=0;exitDy=0;entryX=0;entryY=0.5;entryDx=0;entryDy=0;fillColor=#60a917;strokeColor=#2D7600;" parent="1" source="4" target="2" edge="1">
                    <mxGeometry relative="1" as="geometry"/>
                </mxCell>
                <mxCell id="4" value="Biocell" style="rounded=0;whiteSpace=wrap;html=1;fillColor=#60a917;fontColor=#ffffff;strokeColor=#2D7600;" parent="1" vertex="1">
                    <mxGeometry x="40" y="160" width="120" height="60" as="geometry"/>
                </mxCell>
                <mxCell id="10" value="x2" style="edgeStyle=none;html=1;exitX=0;exitY=0.75;exitDx=0;exitDy=0;entryX=1;entryY=0.75;entryDx=0;entryDy=0;fillColor=#60a917;strokeColor=#2D7600;" parent="1" source="8" target="2" edge="1">
                    <mxGeometry relative="1" as="geometry"/>
                </mxCell>
                <mxCell id="12" value="250 heat" style="edgeStyle=none;html=1;fillColor=#60a917;strokeColor=#2D7600;" parent="1" source="8" target="11" edge="1">
                    <mxGeometry relative="1" as="geometry"/>
                </mxCell>
                <mxCell id="25" value="" style="edgeStyle=none;html=1;" parent="1" source="8" target="24" edge="1">
                    <mxGeometry relative="1" as="geometry"/>
                </mxCell>
                <mxCell id="8" value="Incubated&lt;br&gt;Biomass" style="whiteSpace=wrap;html=1;rounded=0;fillColor=#60a917;fontColor=#ffffff;strokeColor=#2D7600;" parent="1" vertex="1">
                    <mxGeometry x="520" y="160" width="120" height="60" as="geometry"/>
                </mxCell>
                <mxCell id="14" value="" style="edgeStyle=none;html=1;fillColor=#60a917;strokeColor=#2D7600;" parent="1" source="11" target="13" edge="1">
                    <mxGeometry relative="1" as="geometry"/>
                </mxCell>
                <mxCell id="16" value="1200 heat" style="edgeStyle=none;html=1;fillColor=#60a917;strokeColor=#2D7600;" parent="1" source="11" target="15" edge="1">
                    <mxGeometry relative="1" as="geometry"/>
                </mxCell>
                <mxCell id="27" value="" style="edgeStyle=none;html=1;fillColor=#60a917;strokeColor=#2D7600;" parent="1" source="11" target="26" edge="1">
                    <mxGeometry relative="1" as="geometry"/>
                </mxCell>
                <mxCell id="29" value="" style="edgeStyle=none;html=1;fillColor=#60a917;strokeColor=#2D7600;" parent="1" source="11" target="28" edge="1">
                    <mxGeometry relative="1" as="geometry"/>
                </mxCell>
                <mxCell id="33" value="" style="edgeStyle=none;html=1;exitX=1;exitY=0.5;exitDx=0;exitDy=0;" parent="1" source="28" target="30" edge="1">
                    <mxGeometry relative="1" as="geometry">
                        <mxPoint x="840" y="470" as="sourcePoint"/>
                    </mxGeometry>
                </mxCell>
                <mxCell id="37" value="" style="edgeStyle=none;html=1;" parent="1" source="11" target="36" edge="1">
                    <mxGeometry relative="1" as="geometry"/>
                </mxCell>
                <mxCell id="53" value="" style="edgeStyle=none;html=1;fillColor=#60a917;strokeColor=#2D7600;" parent="1" source="11" target="52" edge="1">
                    <mxGeometry relative="1" as="geometry"/>
                </mxCell>
                <mxCell id="11" value="Biomaterial MK1" style="whiteSpace=wrap;html=1;rounded=0;fillColor=#60a917;fontColor=#ffffff;strokeColor=#2D7600;" parent="1" vertex="1">
                    <mxGeometry x="520" y="360" width="120" height="60" as="geometry"/>
                </mxCell>
                <mxCell id="45" style="edgeStyle=none;html=1;entryX=1;entryY=0.5;entryDx=0;entryDy=0;fillColor=#60a917;strokeColor=#2D7600;" parent="1" source="13" target="3" edge="1">
                    <mxGeometry relative="1" as="geometry"/>
                </mxCell>
                <mxCell id="13" value="Neuromass MK1" style="whiteSpace=wrap;html=1;rounded=0;fillColor=#60a917;fontColor=#ffffff;strokeColor=#2D7600;" parent="1" vertex="1">
                    <mxGeometry x="320" y="280" width="120" height="60" as="geometry"/>
                </mxCell>
                <mxCell id="18" value="" style="edgeStyle=none;html=1;" parent="1" source="15" target="17" edge="1">
                    <mxGeometry relative="1" as="geometry"/>
                </mxCell>
                <mxCell id="20" value="" style="edgeStyle=none;html=1;fillColor=#f0a30a;strokeColor=#BD7000;" parent="1" source="15" target="19" edge="1">
                    <mxGeometry relative="1" as="geometry"/>
                </mxCell>
                <mxCell id="23" value="3000 heat" style="edgeStyle=none;html=1;" parent="1" source="15" target="22" edge="1">
                    <mxGeometry relative="1" as="geometry"/>
                </mxCell>
                <mxCell id="39" value="" style="edgeStyle=none;html=1;" parent="1" source="15" target="38" edge="1">
                    <mxGeometry relative="1" as="geometry"/>
                </mxCell>
                <mxCell id="15" value="Biomaterial MK2" style="whiteSpace=wrap;html=1;rounded=0;fillColor=#60a917;fontColor=#ffffff;strokeColor=#2D7600;" parent="1" vertex="1">
                    <mxGeometry x="520" y="600" width="120" height="60" as="geometry"/>
                </mxCell>
                <mxCell id="17" value="Neuromass MK2" style="whiteSpace=wrap;html=1;rounded=0;" parent="1" vertex="1">
                    <mxGeometry x="320" y="520" width="120" height="60" as="geometry"/>
                </mxCell>
                <mxCell id="19" value="Musclemass MK1" style="whiteSpace=wrap;html=1;rounded=0;fillColor=#f0a30a;fontColor=#000000;strokeColor=#BD7000;" parent="1" vertex="1">
                    <mxGeometry x="320" y="680" width="120" height="60" as="geometry"/>
                </mxCell>
                <mxCell id="42" value="" style="edgeStyle=none;html=1;" parent="1" source="22" target="41" edge="1">
                    <mxGeometry relative="1" as="geometry"/>
                </mxCell>
                <mxCell id="44" value="" style="edgeStyle=none;html=1;" parent="1" source="22" target="43" edge="1">
                    <mxGeometry relative="1" as="geometry"/>
                </mxCell>
                <mxCell id="22" value="Biomaterial MK3" style="whiteSpace=wrap;html=1;rounded=0;" parent="1" vertex="1">
                    <mxGeometry x="520" y="760" width="120" height="60" as="geometry"/>
                </mxCell>
                <mxCell id="24" value="Bacteria" style="whiteSpace=wrap;html=1;rounded=0;" parent="1" vertex="1">
                    <mxGeometry x="520" y="20" width="120" height="60" as="geometry"/>
                </mxCell>
                <mxCell id="46" style="edgeStyle=none;html=1;exitX=0;exitY=0.5;exitDx=0;exitDy=0;entryX=1;entryY=0.5;entryDx=0;entryDy=0;" parent="1" source="26" target="3" edge="1">
                    <mxGeometry relative="1" as="geometry">
                        <mxPoint x="210" y="400" as="targetPoint"/>
                    </mxGeometry>
                </mxCell>
                <mxCell id="26" value="Skymass MK 1" style="whiteSpace=wrap;html=1;rounded=0;fillColor=#60a917;fontColor=#ffffff;strokeColor=#2D7600;" parent="1" vertex="1">
                    <mxGeometry x="320" y="360" width="120" height="60" as="geometry"/>
                </mxCell>
                <mxCell id="48" value="" style="edgeStyle=none;html=1;" parent="1" source="28" target="47" edge="1">
                    <mxGeometry relative="1" as="geometry"/>
                </mxCell>
                <mxCell id="49" style="edgeStyle=none;html=1;exitX=0.5;exitY=0;exitDx=0;exitDy=0;fillColor=#60a917;strokeColor=#2D7600;" parent="1" source="28" edge="1">
                    <mxGeometry relative="1" as="geometry">
                        <mxPoint x="780" y="220" as="targetPoint"/>
                    </mxGeometry>
                </mxCell>
                <mxCell id="28" value="Bloodmass MK1" style="whiteSpace=wrap;html=1;rounded=0;fillColor=#60a917;fontColor=#ffffff;strokeColor=#2D7600;" parent="1" vertex="1">
                    <mxGeometry x="720" y="280" width="120" height="60" as="geometry"/>
                </mxCell>
                <mxCell id="30" value="Rotmass MK1" style="whiteSpace=wrap;html=1;rounded=0;fillColor=#e51400;fontColor=#ffffff;strokeColor=#B20000;" parent="1" vertex="1">
                    <mxGeometry x="880" y="280" width="120" height="60" as="geometry"/>
                </mxCell>
                <mxCell id="36" value="Slimemass MK1" style="whiteSpace=wrap;html=1;rounded=0;fillColor=#e51400;fontColor=#ffffff;strokeColor=#B20000;" parent="1" vertex="1">
                    <mxGeometry x="320" y="440" width="120" height="60" as="geometry"/>
                </mxCell>
                <mxCell id="38" value="Skymass MK2" style="whiteSpace=wrap;html=1;rounded=0;" parent="1" vertex="1">
                    <mxGeometry x="320" y="600" width="120" height="60" as="geometry"/>
                </mxCell>
                <mxCell id="41" value="Neuromass MK3" style="whiteSpace=wrap;html=1;rounded=0;" parent="1" vertex="1">
                    <mxGeometry x="320" y="760" width="120" height="60" as="geometry"/>
                </mxCell>
                <mxCell id="43" value="Musclemass MK2" style="whiteSpace=wrap;html=1;rounded=0;" parent="1" vertex="1">
                    <mxGeometry x="720" y="760" width="120" height="60" as="geometry"/>
                </mxCell>
                <mxCell id="47" value="Firebloodmass MK1" style="whiteSpace=wrap;html=1;rounded=0;fillColor=#e51400;fontColor=#ffffff;strokeColor=#B20000;" parent="1" vertex="1">
                    <mxGeometry x="880" y="360" width="120" height="60" as="geometry"/>
                </mxCell>
                <mxCell id="54" style="edgeStyle=none;html=1;fillColor=#60a917;strokeColor=#2D7600;" parent="1" source="52" edge="1">
                    <mxGeometry relative="1" as="geometry">
                        <mxPoint x="800" y="470" as="targetPoint"/>
                    </mxGeometry>
                </mxCell>
                <mxCell id="52" value="Glowmass" style="whiteSpace=wrap;html=1;fillColor=#60a917;strokeColor=#2D7600;fontColor=#ffffff;rounded=0;" parent="1" vertex="1">
                    <mxGeometry x="720" y="360" width="120" height="60" as="geometry"/>
                </mxCell>
            </root>
        </mxGraphModel>
    </diagram>
    <diagram id="x8IP69c5gtEsJeOwVw9P" name="reagents">
        <mxGraphModel dx="764" dy="576" grid="1" gridSize="10" guides="1" tooltips="1" connect="1" arrows="1" fold="1" page="1" pageScale="1" pageWidth="827" pageHeight="1169" math="0" shadow="0">
            <root>
                <mxCell id="0"/>
                <mxCell id="1" parent="0"/>
                <mxCell id="_wg1yRaDThk7lAapbeR3-3" value="" style="edgeStyle=none;html=1;" parent="1" source="_wg1yRaDThk7lAapbeR3-1" target="_wg1yRaDThk7lAapbeR3-2" edge="1">
                    <mxGeometry relative="1" as="geometry"/>
                </mxCell>
                <mxCell id="_wg1yRaDThk7lAapbeR3-5" value="" style="edgeStyle=none;html=1;" parent="1" source="_wg1yRaDThk7lAapbeR3-1" target="_wg1yRaDThk7lAapbeR3-4" edge="1">
                    <mxGeometry relative="1" as="geometry"/>
                </mxCell>
                <mxCell id="_wg1yRaDThk7lAapbeR3-1" value="BM entrance" style="whiteSpace=wrap;html=1;fillColor=#60a917;fontColor=#ffffff;strokeColor=#2D7600;" parent="1" vertex="1">
                    <mxGeometry x="40" y="160" width="120" height="60" as="geometry"/>
                </mxCell>
                <mxCell id="_wg1yRaDThk7lAapbeR3-10" style="edgeStyle=none;html=1;fillColor=#60a917;strokeColor=#2D7600;" parent="1" source="_wg1yRaDThk7lAapbeR3-2" target="_wg1yRaDThk7lAapbeR3-8" edge="1">
                    <mxGeometry relative="1" as="geometry"/>
                </mxCell>
                <mxCell id="_wg1yRaDThk7lAapbeR3-2" value="tartaric forge" style="whiteSpace=wrap;html=1;fillColor=#60a917;fontColor=#ffffff;strokeColor=#2D7600;" parent="1" vertex="1">
                    <mxGeometry x="200" y="160" width="120" height="60" as="geometry"/>
                </mxCell>
                <mxCell id="_wg1yRaDThk7lAapbeR3-7" value="" style="edgeStyle=none;html=1;" parent="1" source="_wg1yRaDThk7lAapbeR3-4" target="_wg1yRaDThk7lAapbeR3-6" edge="1">
                    <mxGeometry relative="1" as="geometry"/>
                </mxCell>
                <mxCell id="_wg1yRaDThk7lAapbeR3-4" value="1-2 will" style="whiteSpace=wrap;html=1;fillColor=#60a917;fontColor=#ffffff;strokeColor=#2D7600;" parent="1" vertex="1">
                    <mxGeometry x="40" y="300" width="120" height="60" as="geometry"/>
                </mxCell>
                <mxCell id="_wg1yRaDThk7lAapbeR3-9" value="" style="edgeStyle=none;html=1;" parent="1" source="_wg1yRaDThk7lAapbeR3-6" target="_wg1yRaDThk7lAapbeR3-8" edge="1">
                    <mxGeometry relative="1" as="geometry"/>
                </mxCell>
                <mxCell id="_wg1yRaDThk7lAapbeR3-14" value="" style="edgeStyle=none;html=1;" parent="1" source="_wg1yRaDThk7lAapbeR3-6" target="_wg1yRaDThk7lAapbeR3-13" edge="1">
                    <mxGeometry relative="1" as="geometry"/>
                </mxCell>
                <mxCell id="_wg1yRaDThk7lAapbeR3-6" value="64 will" style="whiteSpace=wrap;html=1;" parent="1" vertex="1">
                    <mxGeometry x="240" y="300" width="120" height="60" as="geometry"/>
                </mxCell>
                <mxCell id="_wg1yRaDThk7lAapbeR3-12" value="" style="edgeStyle=none;html=1;" parent="1" source="_wg1yRaDThk7lAapbeR3-8" target="_wg1yRaDThk7lAapbeR3-11" edge="1">
                    <mxGeometry relative="1" as="geometry"/>
                </mxCell>
                <mxCell id="_wg1yRaDThk7lAapbeR3-8" value="fire water&lt;br&gt;air earth" style="whiteSpace=wrap;html=1;fillColor=#60a917;fontColor=#ffffff;strokeColor=#2D7600;" parent="1" vertex="1">
                    <mxGeometry x="400" y="240" width="120" height="60" as="geometry"/>
                </mxCell>
                <mxCell id="_wg1yRaDThk7lAapbeR3-20" value="" style="edgeStyle=none;html=1;" parent="1" source="_wg1yRaDThk7lAapbeR3-11" target="_wg1yRaDThk7lAapbeR3-19" edge="1">
                    <mxGeometry relative="1" as="geometry"/>
                </mxCell>
                <mxCell id="_wg1yRaDThk7lAapbeR3-26" value="" style="edgeStyle=none;html=1;" parent="1" source="_wg1yRaDThk7lAapbeR3-8" target="_wg1yRaDThk7lAapbeR3-25" edge="1">
                    <mxGeometry relative="1" as="geometry"/>
                </mxCell>
                <mxCell id="_wg1yRaDThk7lAapbeR3-38" value="" style="edgeStyle=none;html=1;" parent="1" source="_wg1yRaDThk7lAapbeR3-11" target="_wg1yRaDThk7lAapbeR3-37" edge="1">
                    <mxGeometry relative="1" as="geometry"/>
                </mxCell>
                <mxCell id="_wg1yRaDThk7lAapbeR3-11" value="256 will" style="whiteSpace=wrap;html=1;" parent="1" vertex="1">
                    <mxGeometry x="600" y="240" width="120" height="60" as="geometry"/>
                </mxCell>
                <mxCell id="_wg1yRaDThk7lAapbeR3-18" value="" style="edgeStyle=none;html=1;" parent="1" source="_wg1yRaDThk7lAapbeR3-13" target="_wg1yRaDThk7lAapbeR3-17" edge="1">
                    <mxGeometry relative="1" as="geometry"/>
                </mxCell>
                <mxCell id="_wg1yRaDThk7lAapbeR3-13" value="oil" style="whiteSpace=wrap;html=1;fillColor=#f0a30a;fontColor=#000000;strokeColor=#BD7000;" parent="1" vertex="1">
                    <mxGeometry x="240" y="440" width="120" height="60" as="geometry"/>
                </mxCell>
                <mxCell id="_wg1yRaDThk7lAapbeR3-17" value="concrete" style="whiteSpace=wrap;html=1;" parent="1" vertex="1">
                    <mxGeometry x="40" y="440" width="120" height="60" as="geometry"/>
                </mxCell>
                <mxCell id="_wg1yRaDThk7lAapbeR3-22" value="" style="edgeStyle=none;html=1;" parent="1" source="_wg1yRaDThk7lAapbeR3-19" target="_wg1yRaDThk7lAapbeR3-21" edge="1">
                    <mxGeometry relative="1" as="geometry"/>
                </mxCell>
                <mxCell id="_wg1yRaDThk7lAapbeR3-36" value="" style="edgeStyle=none;html=1;" parent="1" source="_wg1yRaDThk7lAapbeR3-19" target="_wg1yRaDThk7lAapbeR3-35" edge="1">
                    <mxGeometry relative="1" as="geometry"/>
                </mxCell>
                <mxCell id="_wg1yRaDThk7lAapbeR3-19" value="holding&lt;br&gt;binding&lt;br&gt;growth&lt;br&gt;elastic" style="whiteSpace=wrap;html=1;" parent="1" vertex="1">
                    <mxGeometry x="600" y="380" width="120" height="60" as="geometry"/>
                </mxCell>
                <mxCell id="_wg1yRaDThk7lAapbeR3-24" value="" style="edgeStyle=none;html=1;" parent="1" source="_wg1yRaDThk7lAapbeR3-21" target="_wg1yRaDThk7lAapbeR3-23" edge="1">
                    <mxGeometry relative="1" as="geometry"/>
                </mxCell>
                <mxCell id="_wg1yRaDThk7lAapbeR3-28" value="" style="edgeStyle=none;html=1;" parent="1" source="_wg1yRaDThk7lAapbeR3-21" target="_wg1yRaDThk7lAapbeR3-27" edge="1">
                    <mxGeometry relative="1" as="geometry"/>
                </mxCell>
                <mxCell id="_wg1yRaDThk7lAapbeR3-32" value="" style="edgeStyle=none;html=1;" parent="1" source="_wg1yRaDThk7lAapbeR3-21" target="_wg1yRaDThk7lAapbeR3-31" edge="1">
                    <mxGeometry relative="1" as="geometry"/>
                </mxCell>
                <mxCell id="_wg1yRaDThk7lAapbeR3-40" value="" style="edgeStyle=none;html=1;" parent="1" source="_wg1yRaDThk7lAapbeR3-21" target="_wg1yRaDThk7lAapbeR3-39" edge="1">
                    <mxGeometry relative="1" as="geometry"/>
                </mxCell>
                <mxCell id="_wg1yRaDThk7lAapbeR3-21" value="1024 will" style="whiteSpace=wrap;html=1;" parent="1" vertex="1">
                    <mxGeometry x="600" y="520" width="120" height="60" as="geometry"/>
                </mxCell>
                <mxCell id="_wg1yRaDThk7lAapbeR3-30" value="" style="edgeStyle=none;html=1;" parent="1" source="_wg1yRaDThk7lAapbeR3-23" target="_wg1yRaDThk7lAapbeR3-29" edge="1">
                    <mxGeometry relative="1" as="geometry"/>
                </mxCell>
                <mxCell id="_wg1yRaDThk7lAapbeR3-23" value="void&lt;br&gt;claw&lt;br&gt;melodic&lt;br&gt;lamp" style="whiteSpace=wrap;html=1;" parent="1" vertex="1">
                    <mxGeometry x="400" y="520" width="120" height="60" as="geometry"/>
                </mxCell>
                <mxCell id="_wg1yRaDThk7lAapbeR3-25" value="frost&lt;br&gt;mud" style="whiteSpace=wrap;html=1;" parent="1" vertex="1">
                    <mxGeometry x="400" y="100" width="120" height="60" as="geometry"/>
                </mxCell>
                <mxCell id="_wg1yRaDThk7lAapbeR3-27" value="bug&lt;br&gt;compression" style="whiteSpace=wrap;html=1;" parent="1" vertex="1">
                    <mxGeometry x="600" y="660" width="120" height="60" as="geometry"/>
                </mxCell>
                <mxCell id="_wg1yRaDThk7lAapbeR3-34" value="" style="edgeStyle=none;html=1;" parent="1" source="_wg1yRaDThk7lAapbeR3-29" target="_wg1yRaDThk7lAapbeR3-33" edge="1">
                    <mxGeometry relative="1" as="geometry"/>
                </mxCell>
                <mxCell id="_wg1yRaDThk7lAapbeR3-42" value="" style="edgeStyle=none;html=1;" parent="1" source="_wg1yRaDThk7lAapbeR3-29" target="_wg1yRaDThk7lAapbeR3-41" edge="1">
                    <mxGeometry relative="1" as="geometry"/>
                </mxCell>
                <mxCell id="_wg1yRaDThk7lAapbeR3-46" value="" style="edgeStyle=none;html=1;" parent="1" source="_wg1yRaDThk7lAapbeR3-29" target="_wg1yRaDThk7lAapbeR3-45" edge="1">
                    <mxGeometry relative="1" as="geometry"/>
                </mxCell>
                <mxCell id="_wg1yRaDThk7lAapbeR3-50" value="" style="edgeStyle=none;html=1;" parent="1" source="_wg1yRaDThk7lAapbeR3-29" target="_wg1yRaDThk7lAapbeR3-49" edge="1">
                    <mxGeometry relative="1" as="geometry"/>
                </mxCell>
                <mxCell id="_wg1yRaDThk7lAapbeR3-29" value="4096 will" style="whiteSpace=wrap;html=1;" parent="1" vertex="1">
                    <mxGeometry x="40" y="600" width="120" height="60" as="geometry"/>
                </mxCell>
                <mxCell id="_wg1yRaDThk7lAapbeR3-31" value="acid" style="whiteSpace=wrap;html=1;" parent="1" vertex="1">
                    <mxGeometry x="400" y="660" width="120" height="60" as="geometry"/>
                </mxCell>
                <mxCell id="_wg1yRaDThk7lAapbeR3-48" value="" style="edgeStyle=none;html=1;" parent="1" source="_wg1yRaDThk7lAapbeR3-33" target="_wg1yRaDThk7lAapbeR3-47" edge="1">
                    <mxGeometry relative="1" as="geometry"/>
                </mxCell>
                <mxCell id="_wg1yRaDThk7lAapbeR3-33" value="16k will" style="whiteSpace=wrap;html=1;" parent="1" vertex="1">
                    <mxGeometry x="120" y="920" width="120" height="60" as="geometry"/>
                </mxCell>
                <mxCell id="_wg1yRaDThk7lAapbeR3-35" value="wood&lt;br&gt;mushroom" style="whiteSpace=wrap;html=1;" parent="1" vertex="1">
                    <mxGeometry x="800" y="380" width="120" height="60" as="geometry"/>
                </mxCell>
                <mxCell id="_wg1yRaDThk7lAapbeR3-44" value="" style="edgeStyle=none;html=1;" parent="1" source="_wg1yRaDThk7lAapbeR3-37" target="_wg1yRaDThk7lAapbeR3-43" edge="1">
                    <mxGeometry relative="1" as="geometry"/>
                </mxCell>
                <mxCell id="_wg1yRaDThk7lAapbeR3-37" value="lightning&lt;br&gt;metal" style="whiteSpace=wrap;html=1;" parent="1" vertex="1">
                    <mxGeometry x="600" y="100" width="120" height="60" as="geometry"/>
                </mxCell>
                <mxCell id="_wg1yRaDThk7lAapbeR3-39" value="gem&lt;br&gt;meat&lt;br&gt;dark&lt;br&gt;laser" style="whiteSpace=wrap;html=1;" parent="1" vertex="1">
                    <mxGeometry x="800" y="520" width="120" height="60" as="geometry"/>
                </mxCell>
                <mxCell id="_wg1yRaDThk7lAapbeR3-41" value="luck&lt;br&gt;smarts&lt;br&gt;mana&lt;br&gt;soul" style="whiteSpace=wrap;html=1;" parent="1" vertex="1">
                    <mxGeometry x="40" y="740" width="120" height="60" as="geometry"/>
                </mxCell>
                <mxCell id="_wg1yRaDThk7lAapbeR3-43" value="mechanism" style="whiteSpace=wrap;html=1;" parent="1" vertex="1">
                    <mxGeometry x="800" y="100" width="120" height="60" as="geometry"/>
                </mxCell>
                <mxCell id="_wg1yRaDThk7lAapbeR3-45" value="dragon" style="whiteSpace=wrap;html=1;" parent="1" vertex="1">
                    <mxGeometry x="240" y="600" width="120" height="60" as="geometry"/>
                </mxCell>
                <mxCell id="_wg1yRaDThk7lAapbeR3-52" value="" style="edgeStyle=none;html=1;" parent="1" source="_wg1yRaDThk7lAapbeR3-47" target="_wg1yRaDThk7lAapbeR3-51" edge="1">
                    <mxGeometry relative="1" as="geometry"/>
                </mxCell>
                <mxCell id="_wg1yRaDThk7lAapbeR3-47" value="chaos&lt;br&gt;space&lt;br&gt;time&lt;br&gt;singularity" style="whiteSpace=wrap;html=1;" parent="1" vertex="1">
                    <mxGeometry x="320" y="920" width="120" height="60" as="geometry"/>
                </mxCell>
                <mxCell id="_wg1yRaDThk7lAapbeR3-49" value="death&lt;br&gt;life" style="whiteSpace=wrap;html=1;" parent="1" vertex="1">
                    <mxGeometry x="240" y="720" width="120" height="60" as="geometry"/>
                </mxCell>
                <mxCell id="_wg1yRaDThk7lAapbeR3-51" value="true infinity" style="whiteSpace=wrap;html=1;" parent="1" vertex="1">
                    <mxGeometry x="520" y="920" width="120" height="60" as="geometry"/>
                </mxCell>
            </root>
        </mxGraphModel>
    </diagram>
    <diagram id="fFRoMbHfd2hNmdWxK3qt" name="Page-3">
        <mxGraphModel dx="764" dy="576" grid="1" gridSize="10" guides="1" tooltips="1" connect="1" arrows="1" fold="1" page="1" pageScale="1" pageWidth="827" pageHeight="1169" math="0" shadow="0">
            <root>
                <mxCell id="0"/>
                <mxCell id="1" parent="0"/>
                <mxCell id="Zb7b9FeQL4o59orGXN2d-3" value="" style="edgeStyle=none;html=1;" edge="1" parent="1" source="Zb7b9FeQL4o59orGXN2d-1" target="Zb7b9FeQL4o59orGXN2d-2">
                    <mxGeometry relative="1" as="geometry"/>
                </mxCell>
                <mxCell id="Zb7b9FeQL4o59orGXN2d-25" style="edgeStyle=none;html=1;" edge="1" parent="1" source="Zb7b9FeQL4o59orGXN2d-1" target="Zb7b9FeQL4o59orGXN2d-4">
                    <mxGeometry relative="1" as="geometry"/>
                </mxCell>
                <mxCell id="Zb7b9FeQL4o59orGXN2d-1" value="dense ore" style="rounded=0;whiteSpace=wrap;html=1;" vertex="1" parent="1">
                    <mxGeometry x="40" y="40" width="120" height="60" as="geometry"/>
                </mxCell>
                <mxCell id="Zb7b9FeQL4o59orGXN2d-5" value="" style="edgeStyle=none;html=1;" edge="1" parent="1" source="Zb7b9FeQL4o59orGXN2d-2" target="Zb7b9FeQL4o59orGXN2d-4">
                    <mxGeometry relative="1" as="geometry"/>
                </mxCell>
                <mxCell id="Zb7b9FeQL4o59orGXN2d-9" value="" style="edgeStyle=none;html=1;" edge="1" parent="1" source="Zb7b9FeQL4o59orGXN2d-2" target="Zb7b9FeQL4o59orGXN2d-8">
                    <mxGeometry relative="1" as="geometry"/>
                </mxCell>
                <mxCell id="Zb7b9FeQL4o59orGXN2d-27" style="edgeStyle=none;html=1;" edge="1" parent="1" source="Zb7b9FeQL4o59orGXN2d-2" target="Zb7b9FeQL4o59orGXN2d-20">
                    <mxGeometry relative="1" as="geometry"/>
                </mxCell>
                <mxCell id="Zb7b9FeQL4o59orGXN2d-2" value="ore" style="whiteSpace=wrap;html=1;rounded=0;" vertex="1" parent="1">
                    <mxGeometry x="40" y="220" width="120" height="60" as="geometry"/>
                </mxCell>
                <mxCell id="Zb7b9FeQL4o59orGXN2d-7" value="" style="edgeStyle=none;html=1;" edge="1" parent="1" source="Zb7b9FeQL4o59orGXN2d-4" target="Zb7b9FeQL4o59orGXN2d-6">
                    <mxGeometry relative="1" as="geometry"/>
                </mxCell>
                <mxCell id="Zb7b9FeQL4o59orGXN2d-4" value="pieces" style="whiteSpace=wrap;html=1;rounded=0;" vertex="1" parent="1">
                    <mxGeometry x="320" y="40" width="120" height="60" as="geometry"/>
                </mxCell>
                <mxCell id="Zb7b9FeQL4o59orGXN2d-10" style="edgeStyle=none;html=1;" edge="1" parent="1" source="Zb7b9FeQL4o59orGXN2d-6" target="Zb7b9FeQL4o59orGXN2d-8">
                    <mxGeometry relative="1" as="geometry"/>
                </mxCell>
                <mxCell id="Zb7b9FeQL4o59orGXN2d-26" style="edgeStyle=none;html=1;" edge="1" parent="1" source="Zb7b9FeQL4o59orGXN2d-6" target="Zb7b9FeQL4o59orGXN2d-20">
                    <mxGeometry relative="1" as="geometry"/>
                </mxCell>
                <mxCell id="Zb7b9FeQL4o59orGXN2d-6" value="chunk" style="whiteSpace=wrap;html=1;rounded=0;" vertex="1" parent="1">
                    <mxGeometry x="320" y="160" width="120" height="60" as="geometry"/>
                </mxCell>
                <mxCell id="Zb7b9FeQL4o59orGXN2d-12" value="" style="edgeStyle=none;html=1;" edge="1" parent="1" source="Zb7b9FeQL4o59orGXN2d-8" target="Zb7b9FeQL4o59orGXN2d-11">
                    <mxGeometry relative="1" as="geometry"/>
                </mxCell>
                <mxCell id="Zb7b9FeQL4o59orGXN2d-8" value="gas" style="whiteSpace=wrap;html=1;rounded=0;" vertex="1" parent="1">
                    <mxGeometry x="320" y="320" width="120" height="60" as="geometry"/>
                </mxCell>
                <mxCell id="Zb7b9FeQL4o59orGXN2d-14" value="" style="edgeStyle=none;html=1;" edge="1" parent="1" source="Zb7b9FeQL4o59orGXN2d-11" target="Zb7b9FeQL4o59orGXN2d-13">
                    <mxGeometry relative="1" as="geometry"/>
                </mxCell>
                <mxCell id="Zb7b9FeQL4o59orGXN2d-11" value="crystal" style="whiteSpace=wrap;html=1;rounded=0;" vertex="1" parent="1">
                    <mxGeometry x="320" y="400" width="120" height="60" as="geometry"/>
                </mxCell>
                <mxCell id="Zb7b9FeQL4o59orGXN2d-16" value="" style="edgeStyle=none;html=1;" edge="1" parent="1" source="Zb7b9FeQL4o59orGXN2d-13" target="Zb7b9FeQL4o59orGXN2d-15">
                    <mxGeometry relative="1" as="geometry"/>
                </mxCell>
                <mxCell id="Zb7b9FeQL4o59orGXN2d-13" value="shard" style="whiteSpace=wrap;html=1;rounded=0;" vertex="1" parent="1">
                    <mxGeometry x="320" y="480" width="120" height="60" as="geometry"/>
                </mxCell>
                <mxCell id="Zb7b9FeQL4o59orGXN2d-19" value="" style="edgeStyle=none;html=1;" edge="1" parent="1" source="Zb7b9FeQL4o59orGXN2d-15" target="Zb7b9FeQL4o59orGXN2d-18">
                    <mxGeometry relative="1" as="geometry"/>
                </mxCell>
                <mxCell id="Zb7b9FeQL4o59orGXN2d-23" value="" style="edgeStyle=none;html=1;" edge="1" parent="1" source="Zb7b9FeQL4o59orGXN2d-15" target="Zb7b9FeQL4o59orGXN2d-22">
                    <mxGeometry relative="1" as="geometry"/>
                </mxCell>
                <mxCell id="Zb7b9FeQL4o59orGXN2d-15" value="clump" style="whiteSpace=wrap;html=1;rounded=0;" vertex="1" parent="1">
                    <mxGeometry x="320" y="560" width="120" height="60" as="geometry"/>
                </mxCell>
                <mxCell id="Zb7b9FeQL4o59orGXN2d-21" value="" style="edgeStyle=none;html=1;" edge="1" parent="1" source="Zb7b9FeQL4o59orGXN2d-18" target="Zb7b9FeQL4o59orGXN2d-20">
                    <mxGeometry relative="1" as="geometry"/>
                </mxCell>
                <mxCell id="Zb7b9FeQL4o59orGXN2d-29" value="" style="edgeStyle=none;html=1;" edge="1" parent="1" source="Zb7b9FeQL4o59orGXN2d-18" target="Zb7b9FeQL4o59orGXN2d-28">
                    <mxGeometry relative="1" as="geometry"/>
                </mxCell>
                <mxCell id="Zb7b9FeQL4o59orGXN2d-18" value="dirty dust" style="whiteSpace=wrap;html=1;rounded=0;" vertex="1" parent="1">
                    <mxGeometry x="560" y="560" width="120" height="60" as="geometry"/>
                </mxCell>
                <mxCell id="Zb7b9FeQL4o59orGXN2d-20" value="dust" style="whiteSpace=wrap;html=1;rounded=0;" vertex="1" parent="1">
                    <mxGeometry x="560" y="240" width="120" height="60" as="geometry"/>
                </mxCell>
                <mxCell id="Zb7b9FeQL4o59orGXN2d-24" style="edgeStyle=none;html=1;" edge="1" parent="1" source="Zb7b9FeQL4o59orGXN2d-22" target="Zb7b9FeQL4o59orGXN2d-18">
                    <mxGeometry relative="1" as="geometry"/>
                </mxCell>
                <mxCell id="Zb7b9FeQL4o59orGXN2d-22" value="crop" style="whiteSpace=wrap;html=1;rounded=0;" vertex="1" parent="1">
                    <mxGeometry x="440" y="680" width="120" height="60" as="geometry"/>
                </mxCell>
                <mxCell id="Zb7b9FeQL4o59orGXN2d-30" style="edgeStyle=none;html=1;" edge="1" parent="1" source="Zb7b9FeQL4o59orGXN2d-28" target="Zb7b9FeQL4o59orGXN2d-20">
                    <mxGeometry relative="1" as="geometry"/>
                </mxCell>
                <mxCell id="Zb7b9FeQL4o59orGXN2d-28" value="meat" style="whiteSpace=wrap;html=1;rounded=0;" vertex="1" parent="1">
                    <mxGeometry x="680" y="400" width="120" height="60" as="geometry"/>
                </mxCell>
                <mxCell id="Zb7b9FeQL4o59orGXN2d-32" style="edgeStyle=none;html=1;" edge="1" parent="1" source="Zb7b9FeQL4o59orGXN2d-31" target="Zb7b9FeQL4o59orGXN2d-2">
                    <mxGeometry relative="1" as="geometry"/>
                </mxCell>
                <mxCell id="Zb7b9FeQL4o59orGXN2d-31" value="MA essence" style="rounded=0;whiteSpace=wrap;html=1;" vertex="1" parent="1">
                    <mxGeometry x="40" y="360" width="120" height="60" as="geometry"/>
                </mxCell>
            </root>
        </mxGraphModel>
    </diagram>
</mxfile>